<mxfile host="app.diagrams.net" modified="2023-06-04T08:06:36.640Z" agent="Mozilla/5.0 (Windows NT 10.0; Win64; x64) AppleWebKit/537.36 (KHTML, like Gecko) Chrome/114.0.0.0 Safari/537.36" version="21.3.7" etag="JSXHlloSSeToQXbk8wPe" type="github">
  <diagram name="페이지-1" id="E-2LLTjpu0K_QwuHEFuX">
    <mxGraphModel>
      <root>
        <mxCell id="0" />
        <mxCell id="1" parent="0" />
      </root>
    </mxGraphModel>
  </diagram>
</mxfile>
